<svg xmlns="http://www.w3.org/2000/svg" viewBox="0 0 1200 1720" role="img" aria-label="Glyph Factory Aha flows 25–28">
  <style>
  .bg{fill:#f3eedf}.row{fill:#f8f2e4;stroke:#c5bdab;stroke-width:2}.screen{fill:#fffaf0;stroke:#173125;stroke-width:2}.bar{fill:#184d38}.sidebar{fill:#ece5d3;stroke:#d5cdb9}.sidebar.active{fill:#dbe8cd}.idbox{fill:#235b43}.id{font:700 25px Georgia,serif;fill:#fff}.title{font:700 29px Georgia,serif;fill:#172019}.brand{font:700 17px Georgia,serif;fill:#fff}.nav{font:14px system-ui;fill:#365342}.panel{font:700 18px Georgia,serif;fill:#172019}.line{font:15px system-ui;fill:#4f5f55}.action{font:700 18px Georgia,serif;fill:#172019}.arrow{stroke:#3b7455;stroke-width:14}.arrowfill{fill:#3b7455}.out{font:italic 700 18px Georgia,serif;fill:#245b42}.h1{font:700 42px Georgia,serif;fill:#173125}.sub{font:17px system-ui;fill:#526158}
  </style><rect class="bg" width="1200" height="1720"/><text x="28" y="58" class="h1">Glyph Factory — Standalone Aha Flows 25–28</text><text x="30" y="91" class="sub">Each Aha is a standalone Before → Action → After visual flow.</text><g transform="translate(0 125)">
      <rect x="20" y="0" width="1160" height="360" rx="12" class="row"/>
      <rect x="38" y="22" width="72" height="42" rx="6" class="idbox"/><text x="74" y="51" class="id" text-anchor="middle">A25</text>
      <text x="128" y="53" class="title">Language becomes the social operating system</text>
      <g transform="translate(38 84)">
        <rect width="430" height="228" rx="7" class="screen"/>
        <rect width="430" height="34" rx="7" class="bar"/><text x="15" y="23" class="brand">Glyph Factory</text>
        <rect x="16" y="52" width="94" height="154" class="sidebar"/>
        <text x="31" y="76" class="nav">Workshop</text><text x="31" y="104" class="nav">Inventory</text><text x="31" y="132" class="nav">Research</text><text x="31" y="160" class="nav">Map</text>
        <text x="130" y="79" class="panel">TODAY’S ISSUE</text><text x="130" y="112" class="line">Language = content</text><text x="130" y="147" class="line">Glyphs 256</text><text x="130" y="182" class="line">Publish Issue</text>
      </g>
      <g transform="translate(485 119)"><text x="115" y="0" text-anchor="middle" class="action">Connect language to infrastructure</text><path d="M15 64 H190" class="arrow"/><polygon points="190,50 220,64 190,78" class="arrowfill"/></g>
      <g transform="translate(732 84)">
        <rect width="430" height="228" rx="7" class="screen"/>
        <rect width="430" height="34" rx="7" class="bar"/><text x="15" y="23" class="brand">Glyph Factory</text>
        <rect x="16" y="52" width="94" height="154" class="sidebar active"/>
        <text x="31" y="76" class="nav">System</text><text x="31" y="104" class="nav">Metrics</text><text x="31" y="132" class="nav">World</text><text x="31" y="160" class="nav">Archive</text>
        <text x="130" y="79" class="panel">CITY SYSTEMS</text><text x="130" y="112" class="line">Transit +32% · Energy +28%</text><text x="130" y="147" class="line">Housing +25% · Education +41%</text><text x="130" y="182" class="line">Language runs infrastructure</text>
      </g>
      <text x="600" y="338" text-anchor="middle" class="out">Language stops being content. It starts running the world.</text>
    </g><g transform="translate(0 515)">
      <rect x="20" y="0" width="1160" height="360" rx="12" class="row"/>
      <rect x="38" y="22" width="72" height="42" rx="6" class="idbox"/><text x="74" y="51" class="id" text-anchor="middle">A26</text>
      <text x="128" y="53" class="title">Ambiguity becomes a new resource</text>
      <g transform="translate(38 84)">
        <rect width="430" height="228" rx="7" class="screen"/>
        <rect width="430" height="34" rx="7" class="bar"/><text x="15" y="23" class="brand">Glyph Factory</text>
        <rect x="16" y="52" width="94" height="154" class="sidebar"/>
        <text x="31" y="76" class="nav">Workshop</text><text x="31" y="104" class="nav">Inventory</text><text x="31" y="132" class="nav">Research</text><text x="31" y="160" class="nav">Map</text>
        <text x="130" y="79" class="panel">LIBRARY</text><text x="130" y="112" class="line">More language = more capacity</text><text x="130" y="147" class="line">Total glyphs 1,240</text><text x="130" y="182" class="line">Write More</text>
      </g>
      <g transform="translate(485 119)"><text x="115" y="0" text-anchor="middle" class="action">Confront ambiguity</text><path d="M15 64 H190" class="arrow"/><polygon points="190,50 220,64 190,78" class="arrowfill"/></g>
      <g transform="translate(732 84)">
        <rect width="430" height="228" rx="7" class="screen"/>
        <rect width="430" height="34" rx="7" class="bar"/><text x="15" y="23" class="brand">Glyph Factory</text>
        <rect x="16" y="52" width="94" height="154" class="sidebar active"/>
        <text x="31" y="76" class="nav">System</text><text x="31" y="104" class="nav">Metrics</text><text x="31" y="132" class="nav">World</text><text x="31" y="160" class="nav">Archive</text>
        <text x="130" y="79" class="panel">INTERPRETATION MAP</text><text x="130" y="112" class="line">Ambiguity 312</text><text x="130" y="147" class="line">Aligned 52% · Uncertain 31%</text><text x="130" y="182" class="line">Conflicting 17%</text>
      </g>
      <text x="600" y="338" text-anchor="middle" class="out">Ambiguity isn’t a bug. It’s a system.</text>
    </g><g transform="translate(0 905)">
      <rect x="20" y="0" width="1160" height="360" rx="12" class="row"/>
      <rect x="38" y="22" width="72" height="42" rx="6" class="idbox"/><text x="74" y="51" class="id" text-anchor="middle">A27</text>
      <text x="128" y="53" class="title">The goal flips from producing to deleting</text>
      <g transform="translate(38 84)">
        <rect width="430" height="228" rx="7" class="screen"/>
        <rect width="430" height="34" rx="7" class="bar"/><text x="15" y="23" class="brand">Glyph Factory</text>
        <rect x="16" y="52" width="94" height="154" class="sidebar"/>
        <text x="31" y="76" class="nav">Workshop</text><text x="31" y="104" class="nav">Inventory</text><text x="31" y="132" class="nav">Research</text><text x="31" y="160" class="nav">Map</text>
        <text x="130" y="79" class="panel">PRODUCTION OVERVIEW</text><text x="130" y="112" class="line">48,203 glyphs</text><text x="130" y="147" class="line">Rising output chart</text><text x="130" y="182" class="line">Increase Output</text>
      </g>
      <g transform="translate(485 119)"><text x="115" y="0" text-anchor="middle" class="action">Delete noise at scale</text><path d="M15 64 H190" class="arrow"/><polygon points="190,50 220,64 190,78" class="arrowfill"/></g>
      <g transform="translate(732 84)">
        <rect width="430" height="228" rx="7" class="screen"/>
        <rect width="430" height="34" rx="7" class="bar"/><text x="15" y="23" class="brand">Glyph Factory</text>
        <rect x="16" y="52" width="94" height="154" class="sidebar active"/>
        <text x="31" y="76" class="nav">System</text><text x="31" y="104" class="nav">Metrics</text><text x="31" y="132" class="nav">World</text><text x="31" y="160" class="nav">Archive</text>
        <text x="130" y="79" class="panel">SYSTEM CLEANUP</text><text x="130" y="112" class="line">Duplicate ideas 12,420</text><text x="130" y="147" class="line">Outdated 8,317 · spam 3,802</text><text x="130" y="182" class="line">Entropy 22% · Delete Selected</text>
      </g>
      <text x="600" y="338" text-anchor="middle" class="out">Progress isn’t always more. Sometimes it’s less.</text>
    </g><g transform="translate(0 1295)">
      <rect x="20" y="0" width="1160" height="360" rx="12" class="row"/>
      <rect x="38" y="22" width="72" height="42" rx="6" class="idbox"/><text x="74" y="51" class="id" text-anchor="middle">A28</text>
      <text x="128" y="53" class="title">The last button: stop printing</text>
      <g transform="translate(38 84)">
        <rect width="430" height="228" rx="7" class="screen"/>
        <rect width="430" height="34" rx="7" class="bar"/><text x="15" y="23" class="brand">Glyph Factory</text>
        <rect x="16" y="52" width="94" height="154" class="sidebar"/>
        <text x="31" y="76" class="nav">Workshop</text><text x="31" y="104" class="nav">Inventory</text><text x="31" y="132" class="nav">Research</text><text x="31" y="160" class="nav">Map</text>
        <text x="130" y="79" class="panel">AUTOMATED PIPELINE</text><text x="130" y="112" class="line">Write → Refine → Print → Distribute</text><text x="130" y="147" class="line">RUNNING</text><text x="130" y="182" class="line">1,200 issues/hour</text>
      </g>
      <g transform="translate(485 119)"><text x="115" y="0" text-anchor="middle" class="action">Stop printing</text><path d="M15 64 H190" class="arrow"/><polygon points="190,50 220,64 190,78" class="arrowfill"/></g>
      <g transform="translate(732 84)">
        <rect width="430" height="228" rx="7" class="screen"/>
        <rect width="430" height="34" rx="7" class="bar"/><text x="15" y="23" class="brand">Glyph Factory</text>
        <rect x="16" y="52" width="94" height="154" class="sidebar active"/>
        <text x="31" y="76" class="nav">System</text><text x="31" y="104" class="nav">Metrics</text><text x="31" y="132" class="nav">World</text><text x="31" y="160" class="nav">Archive</text>
        <text x="130" y="79" class="panel">PRESSES OFFLINE</text><text x="130" y="112" class="line">Printing Status: STOPPED</text><text x="130" y="147" class="line">The world is reading</text><text x="130" y="182" class="line">Quiet final screen</text>
      </g>
      <text x="600" y="338" text-anchor="middle" class="out">The game ends not with more output, but with a deliberate stop.</text>
    </g><text x="30" y="1700" class="sub">GLYPH FACTORY · Mock-screen design explanation · A brighter tomorrow.</text></svg>