<svg xmlns="http://www.w3.org/2000/svg" viewBox="0 0 12 12" width="48" height="48" shape-rendering="crispEdges"><rect x="3" y="0" width="6" height="1" fill="#1a211b"/><rect x="2" y="1" width="1" height="1" fill="#1a211b"/><rect x="3" y="1" width="6" height="1" fill="#f0c23b"/><rect x="9" y="1" width="1" height="1" fill="#1a211b"/><rect x="1" y="2" width="1" height="1" fill="#1a211b"/><rect x="2" y="2" width="8" height="1" fill="#f0c23b"/><rect x="10" y="2" width="1" height="1" fill="#1a211b"/><rect x="0" y="3" width="12" height="1" fill="#1a211b"/><rect x="4" y="4" width="1" height="1" fill="#f0c23b"/><rect x="7" y="4" width="1" height="1" fill="#f0c23b"/><rect x="3" y="5" width="1" height="1" fill="#f0c23b"/><rect x="8" y="5" width="1" height="1" fill="#f0c23b"/><rect x="5" y="6" width="2" height="1" fill="#1a211b"/><rect x="5" y="7" width="2" height="1" fill="#1a211b"/><rect x="5" y="8" width="2" height="1" fill="#1a211b"/><rect x="5" y="9" width="2" height="1" fill="#1a211b"/><rect x="3" y="10" width="6" height="1" fill="#1a211b"/><rect x="2" y="11" width="8" height="1" fill="#1a211b"/></svg>
